{"title":"Snoop Lion Ft. Drake &amp; Cori B - No Guns Allowed [Music Video","uid":8923937,"size":72658639,"categoryP":"video","categoryS":"music_videos","magnet":"?xt=urn:btih:ceccb8b95f917dfd2e68c525065f1390d8ee7538&amp;dn=Snoop+Lion+Ft.+Drake+%26amp%3B+Cori+B+-+No+Guns+Allowed+%5BMusic+Video&amp;tr=udp%3A%2F%2Ftracker.openbittorrent.com%3A80&amp;tr=udp%3A%2F%2Fopen.demonii.com%3A1337&amp;tr=udp%3A%2F%2Ftracker.coppersurfer.tk%3A6969&amp;tr=udp%3A%2F%2Fexodus.desync.com%3A6969","seeders":1,"leechers":1,"uploader":"Sbyky","files":1,"time":1379321487,"description":"[IMG]http://cdn.piczend.com/images/iHxEweP9/1379313617_no%20guns%20allowed.jpg[/IMG]\n\nGeneral\nComplete name                            : Snoop Lion Ft. Drake &amp; Cori B - No Guns Allowed [Music Video] 720p [Sbyky].mp4\nFormat                                   : MPEG-4\nFormat profile                           : Base Media / Version 2\nCodec ID                                 : mp42\nFile size                                : 69.3 MiB\nDuration                                 : 3mn 52s\nOverall bit rate mode                    : Variable\nOverall bit rate                         : 2 495 Kbps\nEncoded date                             : UTC 2013-04-08 05:36:07\nTagged date                              : UTC 2013-04-08 05:36:07\n\nVideo\nID                                       : 1\nFormat                                   : AVC\nFormat/Info                              : Advanced Video Codec\nFormat profile                           : &lt;a class=&quot;__cf_email__&quot; href=&quot;/cdn-cgi/l/email-protection&quot; data-cfemail=&quot;d098b9b7b8909ce3fee1&quot;&gt;[email&amp;#160;protected]&lt;/a&gt;&lt;script cf-hash='f9e31' type=&quot;text/javascript&quot;&gt;\n/* &lt;![CDATA[ */!function(){try{var t=&quot;currentScript&quot;in document?document.currentScript:function(){for(var t=document.getElementsByTagName(&quot;script&quot;),e=t.length;e--;)if(t[e].getAttribute(&quot;cf-hash&quot;))return t[e]}();if(t&amp;&amp;t.previousSibling){var e,r,n,i,c=t.previousSibling,a=c.getAttribute(&quot;data-cfemail&quot;);if(a){for(e=&quot;&quot;,r=parseInt(a.substr(0,2),16),n=2;a.length-n;n+=2)i=parseInt(a.substr(n,2),16)^r,e+=String.fromCharCode(i);e=document.createTextNode(e),c.parentNode.replaceChild(e,c)}}}catch(u){}}();/* ]]&gt; */&lt;/script&gt;\nFormat settings, CABAC                   : Yes\nFormat settings, ReFrames                : 1 frame\nCodec ID                                 : avc1\nCodec ID/Info                            : Advanced Video Coding\nDuration                                 : 3mn 52s\nBit rate                                 : 2 300 Kbps\nMaximum bit rate                         : 11.0 Mbps\nWidth                                    : 1 280 pixels\nHeight                                   : 720 pixels\nDisplay aspect ratio                     : 16:9\nFrame rate mode                          : Constant\nFrame rate                               : 23.976 fps\nColor space                              : YUV\nChroma subsampling                       : 4:2:0\nBit depth                                : 8 bits\nScan type                                : Progressive\nBits/(Pixel*Frame)                       : 0.104\nStream size                              : 63.9 MiB (92%)\nTagged date                              : UTC 2013-04-08 05:36:14\n\nAudio\nID                                       : 2\nFormat                                   : AAC\nFormat/Info                              : Advanced Audio Codec\nFormat profile                           : LC\nCodec ID                                 : 40\nDuration                                 : 3mn 52s\nBit rate mode                            : Variable\nBit rate                                 : 192 Kbps\nMaximum bit rate                         : 201 Kbps\nChannel(s)                               : 2 channels\nChannel positions                        : Front: L R\nSampling rate                            : 44.1 KHz\nCompression mode                         : Lossy\nStream size                              : 5.33 MiB (8%)\nTitle                                    : IsoMedia File Produced by Google, 5-11-2011\nEncoded date                             : UTC 2013-04-08 05:36:12\nTagged date                              : UTC 2013-04-08 05:36:14\n\nShared By Sbyky\n[IMG]http://cdn.piczend.com/images/liRi6Opy/1379259598_say%20thanks%20preaching%201.gif[/IMG]\n[IMG]http://cdn.piczend.com/images/HVuSYSI4/1379259626_seeding%20preaching%201.gif[/IMG]","torrent":{"xt":"urn:btih:ceccb8b95f917dfd2e68c525065f1390d8ee7538","amp;dn":"Snoop+Lion+Ft.+Drake+%26amp%3B+Cori+B+-+No+Guns+Allowed+%5BMusic+Video","amp;tr":["udp%3A%2F%2Ftracker.openbittorrent.com%3A80","udp%3A%2F%2Fopen.demonii.com%3A1337","udp%3A%2F%2Ftracker.coppersurfer.tk%3A6969","udp%3A%2F%2Fexodus.desync.com%3A6969"],"infoHash":"ceccb8b95f917dfd2e68c525065f1390d8ee7538","infoHashBuffer":{"type":"Buffer","data":[206,204,184,185,95,145,125,253,46,104,197,37,6,95,19,144,216,238,117,56]},"announce":[],"urlList":[]}}